<svg width="80" height="80" viewBox="0 0 80 80" fill="none" xmlns="http://www.w3.org/2000/svg">
<path d="M74.7855 29.7517C71.9454 26.4594 68.0258 24.3247 63.3076 23.4673C67.8248 20.4189 71.7211 17.3852 74.4992 14.738C78.735 10.7019 80.1553 7.86562 78.9694 5.81266C77.6497 3.52609 73.8401 3.54187 66.9798 5.86281C61.1834 7.82375 53.9625 11.2295 46.6475 15.453C45.3839 16.1823 44.1322 16.9292 42.9075 17.6819C41.9992 15.1167 42.5983 12.1866 44.6023 9.64578C46.1034 7.74266 46.4386 5.32547 45.4772 3.33719C44.4694 1.25328 42.2575 0.005625 39.5567 0H39.4833C29.9511 0 20.6275 3.76109 13.2301 10.5905C5.82357 17.4283 1.28919 26.4802 0.46232 36.0784C-0.532524 47.6378 3.16248 58.6275 10.8664 67.023C18.4342 75.2702 29.1631 80 40.302 80C46.2989 80 51.9286 78.9028 57.0344 76.7386C61.7031 74.7597 65.849 71.9341 69.3572 68.3398C72.6098 65.0072 75.1744 61.1708 76.9795 56.9369C78.6973 52.9081 79.6358 48.6387 79.6939 44.5905C79.7784 38.7033 78.0811 33.5722 74.7855 29.7517ZM43.0901 21.2481C44.7439 20.2052 46.4662 19.1659 48.2098 18.1594C54.9733 14.2544 61.7083 11.038 67.1744 9.1025C73.1915 6.97203 75.6551 7.11109 76.2295 7.38609C76.1798 7.74969 75.7283 9.36734 71.7797 13.0036C68.4825 16.04 63.6676 19.6108 58.2222 23.0581C56.5008 24.1483 54.7092 25.2317 52.8975 26.278C50.3998 27.7195 47.904 29.0675 45.4545 30.3017C44.9658 28.8753 44.3394 27.4911 43.577 26.1705C42.8381 24.8906 41.9811 23.6891 41.0231 22.5773C41.7011 22.133 42.3909 21.6886 43.0901 21.2481ZM42.6236 31.6878C38.2115 33.7802 34.1631 35.3753 30.9301 36.3006C30.7619 35.4923 30.4659 34.7111 30.0461 33.9833C29.6481 33.2934 29.1489 32.6767 28.5719 32.1448C30.9922 29.8091 34.3987 27.1028 38.41 24.3342C39.3412 25.375 40.1669 26.5134 40.8708 27.7327C41.5987 28.9936 42.1847 30.3198 42.6236 31.6878ZM76.5692 44.5456C76.3464 60.0938 62.4172 76.875 40.302 76.875C30.0361 76.875 20.1465 72.5141 13.169 64.9103C6.06388 57.1675 2.65716 47.0233 3.57591 36.3466C5.15388 18.0281 21.2619 3.125 39.4833 3.125H39.5534C41.0483 3.12812 42.182 3.70125 42.6637 4.69766C43.1067 5.61359 42.9142 6.73984 42.1486 7.71047C39.3325 11.2808 38.6262 15.6719 40.2173 19.3742C39.3797 19.9139 38.5564 20.4559 37.7609 20.9936C37.7572 20.9961 37.7534 20.9986 37.7498 21.0011C32.7812 24.3538 28.5856 27.6886 25.794 30.495C23.6769 29.7714 21.3506 29.9823 19.3734 31.1236C16.1272 32.9987 11.8647 41.737 11.0433 43.4697C10.8233 43.9334 10.8453 44.4758 11.1019 44.9203C11.3586 45.3648 11.8172 45.655 12.3287 45.6966C13.1923 45.7666 15.6447 45.9434 18.3742 45.9434C21.6864 45.9434 25.4064 45.6828 27.1861 44.6548C29.1139 43.542 30.4501 41.6827 30.9129 39.5452C34.7447 38.5394 39.7511 36.5717 45.1733 33.93C48.2112 32.4514 51.3356 30.7875 54.46 28.9844C56.0448 28.0691 57.6117 27.1255 59.1345 26.1737C59.1437 26.1742 59.1526 26.1756 59.1619 26.1759C72.1851 26.5494 76.6931 35.91 76.5692 44.5456ZM27.9598 38.1828C27.8598 39.7542 26.9867 41.1617 25.6236 41.9486C24.1459 42.8022 19.0697 42.9172 14.9017 42.7266C16.8197 39.0228 19.457 34.6844 20.9362 33.83C22.3328 33.0238 24.0212 32.9884 25.4537 33.7358C26.2411 34.1458 26.8929 34.7713 27.3392 35.5448C27.8034 36.3495 28.0179 37.2617 27.9598 38.1828Z" fill="#F5CF73"/>
</svg>
