<svg width="80" height="80" viewBox="0 0 80 80" fill="none" xmlns="http://www.w3.org/2000/svg">
<path d="M77.5 1.25H2.5C1.80875 1.25 1.25 1.81 1.25 2.5V7.5C1.25 8.19 1.80875 8.75 2.5 8.75H19.4825L26.6162 15.8837C26.85 16.1187 27.1675 16.25 27.5 16.25H30V20V43.75C30 44.0075 30.0963 44.2325 30.2288 44.4312L30.21 44.4438L35.09 51.765L36.2875 56.5538C36.4275 57.11 36.9263 57.5 37.5 57.5H38.75V68.75H41.25V57.5H42.5C43.0737 57.5 43.5725 57.11 43.7125 56.5538L44.91 51.765L49.79 44.4438L49.7713 44.4312C49.9038 44.2325 50 44.0075 50 43.75V20V16.25H52.5C52.8325 16.25 53.15 16.1187 53.3838 15.8837L60.5175 8.75H77.5C78.1912 8.75 78.75 8.19 78.75 7.5V2.5C78.75 1.81 78.1912 1.25 77.5 1.25V1.25ZM20.5175 6.25L18.0175 3.75H21.9825L24.4825 6.25H20.5175ZM16.9825 6.25H13.0175L10.5175 3.75H14.4825L16.9825 6.25ZM28.0175 6.25L25.5175 3.75H29.4825L31.9825 6.25H28.0175ZM35.5175 6.25L33.0175 3.75H36.9825L39.4825 6.25H35.5175ZM43.0175 6.25L40.5175 3.75H44.4825L46.9825 6.25H43.0175ZM50.5175 6.25L48.0175 3.75H51.9825L54.4825 6.25H50.5175ZM58.0175 6.25L55.5175 3.75H59.4825L61.9825 6.25H58.0175ZM63.0175 3.75H66.9825L69.4825 6.25H65.5175L63.0175 3.75ZM3.75 3.75H6.9825L9.4825 6.25H3.75V3.75ZM38.75 31.25H41.25V35C41.25 35.6887 40.69 36.25 40 36.25C39.31 36.25 38.75 35.6887 38.75 35V31.25ZM41.25 28.75H38.75V21.25H41.25V28.75ZM40 38.75C42.0675 38.75 43.75 37.0675 43.75 35V21.25H47.5V42.5H32.5V21.25H36.25V35C36.25 37.0675 37.9325 38.75 40 38.75ZM36.9187 50L33.585 45H38.75V47.5H41.25V45H46.415L43.0813 50H36.9187ZM38.4763 55L37.85 52.5H42.1488L41.5225 55H38.4763ZM47.5 18.75H32.5V16.25H47.5V18.75ZM51.9825 13.75H28.0175L23.0175 8.75H56.9825L51.9825 13.75ZM76.25 6.25H73.0175L70.5175 3.75H76.25V6.25Z" fill="#F5CF73"/>
<path d="M37.5 71.25H5C2.9325 71.25 1.25 72.9325 1.25 75C1.25 77.0675 2.9325 78.75 5 78.75H37.5C38.1912 78.75 38.75 78.19 38.75 77.5V72.5C38.75 71.81 38.1912 71.25 37.5 71.25ZM36.25 76.25H5C4.31 76.25 3.75 75.6887 3.75 75C3.75 74.3113 4.31 73.75 5 73.75H36.25V76.25Z" fill="#F5CF73"/>
<path d="M75 71.25H42.5C41.8088 71.25 41.25 71.81 41.25 72.5V77.5C41.25 78.19 41.8088 78.75 42.5 78.75H75C77.0675 78.75 78.75 77.0675 78.75 75C78.75 72.9325 77.0675 71.25 75 71.25ZM75 76.25H43.75V73.75H75C75.69 73.75 76.25 74.3113 76.25 75C76.25 75.6887 75.69 76.25 75 76.25Z" fill="#F5CF73"/>
<path d="M42.8545 67.863L47.8546 62.8629L49.6224 64.6307L44.6223 69.6308L42.8545 67.863Z" fill="#F5CF73"/>
<path d="M30.3555 64.6309L32.1232 62.8631L37.1234 67.8632L35.3556 69.631L30.3555 64.6309Z" fill="#F5CF73"/>
<path d="M23.75 66.25H28.75V68.75H23.75V66.25Z" fill="#F5CF73"/>
<path d="M51.25 66.25H56.25V68.75H51.25V66.25Z" fill="#F5CF73"/>
</svg>
