<svg width="80" height="80" viewBox="0 0 80 80" fill="none" xmlns="http://www.w3.org/2000/svg">
<path d="M29.7691 21.4691C28.4452 18.5099 26.0424 16.8801 23.0026 16.8801H22.4511C19.4171 16.8801 16.9281 18.5526 15.6205 21.4742L0.677469 55.219C0.341973 55.958 0 56.8456 0 57.8309C0 61.1119 2.54312 63.6818 5.78997 63.6818C8.30736 63.6818 10.4274 62.2583 11.4643 59.8658L14.093 53.6973H31.0567L33.5664 59.5717C34.7254 62.2222 36.8037 63.6818 39.4191 63.6818C42.7347 63.6818 45.3318 61.0579 45.3318 57.7083C45.3318 56.9357 45.1352 56.1431 44.718 55.226L29.7691 21.4691ZM39.419 60.8005C37.9582 60.8005 36.9075 60.0208 36.211 58.4283L33.3322 51.6908C33.1055 51.1603 32.5842 50.8162 32.0076 50.8162H13.1407C12.5632 50.8162 12.0415 51.1609 11.8154 51.6921L8.81717 58.7281C8.23792 60.0647 7.1629 60.8005 5.78997 60.8005C4.15908 60.8005 2.88131 59.4961 2.88131 57.8309C2.88131 57.3905 3.1069 56.8379 3.30334 56.4054C3.30532 56.4013 3.30711 56.3969 3.30891 56.3928L18.2528 22.6463C18.8418 21.3304 20.0487 19.7616 22.4515 19.7616H23.003C24.8913 19.7616 26.283 20.732 27.1369 22.641L42.0893 56.4054C42.3357 56.9476 42.4505 57.3615 42.4505 57.7085C42.4505 59.4421 41.1187 60.8005 39.419 60.8005Z" fill="#F5CF73"/>
<path d="M23.9018 29.2179C23.6773 28.6829 23.1537 28.335 22.5735 28.335C21.9934 28.335 21.4699 28.6829 21.2452 29.2179L15.3034 43.3681C15.1165 43.8128 15.1647 44.3215 15.4318 44.7234C15.6988 45.1251 16.1491 45.3665 16.6315 45.3665H28.5153C28.9978 45.3665 29.448 45.1251 29.715 44.7232C29.9821 44.3215 30.0303 43.8128 29.8434 43.3681L23.9018 29.2179ZM18.7992 42.4852L22.5735 33.4966L26.3482 42.4852H18.7992Z" fill="#F5CF73"/>
<path d="M70.3415 47.3343C68.4446 46.4587 66.1199 45.9768 63.7962 45.9768C61.4938 45.9768 59.6341 46.4539 58.2694 47.3954C56.7351 48.4535 55.9238 50.0287 55.9238 51.9503V52.0728C55.9238 55.3159 58.5459 57.495 62.4487 57.495C67.5887 57.495 71.1784 54.5348 71.1784 50.2964V48.6424C71.1784 48.0805 70.8517 47.5697 70.3415 47.3343ZM68.2971 50.2962C68.2971 52.8785 65.9468 54.6136 62.4485 54.6136C59.0676 54.6136 58.8048 52.6688 58.8048 52.0724V51.9499C58.8048 49.2596 61.9318 48.8578 63.7959 48.8578C65.3749 48.8578 66.9405 49.1215 68.2969 49.6086V50.2962H68.2971Z" fill="#F5CF73"/>
<path d="M80.0001 42.823H79.9997C79.9997 37.8339 78.6624 33.9668 76.0252 31.3294C73.3067 28.6107 69.2335 27.2322 63.9193 27.2322C59.6573 27.2322 56.2709 27.7895 52.9382 29.0392C50.8774 29.8122 49.4926 31.8068 49.4926 34.0022C49.4926 36.9394 51.82 39.2403 54.7915 39.2403C55.3898 39.2403 55.9089 39.1492 56.5803 38.9265C58.4274 38.3545 60.3873 38.0765 62.5714 38.0765C64.6583 38.0765 67.3421 38.4325 68.0163 41.1969C66.3077 40.749 64.2364 40.402 61.5912 40.402C57.2446 40.402 53.7497 41.3545 51.2034 43.2331C48.4008 45.3004 46.9194 48.4417 46.9194 52.3171V52.4396C46.9194 55.9573 48.2456 58.9191 50.7545 61.0051C53.0197 62.8887 56.1725 63.926 59.6314 63.926C63.2438 63.926 66.3331 62.9268 68.8472 60.9507C69.783 62.5025 71.5791 63.6809 74.0265 63.6809C77.376 63.6809 80.0001 61.0839 80.0001 57.7687V42.823ZM74.0261 60.8004C72.5686 60.8004 70.9955 59.8759 70.9955 58.3821V58.3209C70.9955 57.7249 70.6283 57.1901 70.0717 56.9764C69.5152 56.7622 68.8846 56.9136 68.4851 57.356C66.2446 59.8388 63.3483 61.0457 59.6312 61.0457C52.3752 61.0457 49.8004 56.4101 49.8004 52.4406V52.3181C49.8004 44.4578 57.1876 43.2842 61.5908 43.2842C64.9713 43.2842 67.2214 43.8946 69.1494 44.5542C69.5896 44.7048 70.0752 44.6336 70.4535 44.3632C70.8318 44.0928 71.0565 43.6564 71.0565 43.191V42.6397C71.0565 37.9092 67.9636 35.1959 62.5712 35.1959C60.0878 35.1959 57.8442 35.5178 55.7123 36.1796C55.7026 36.1826 55.6929 36.1857 55.6835 36.1888C55.2536 36.3323 55.0384 36.3593 54.7913 36.3593C53.4356 36.3593 52.3737 35.324 52.3737 34.0024C52.3737 33.0011 53.0073 32.0905 53.9496 31.737C56.9439 30.6143 60.0184 30.1137 63.9189 30.1137C68.4414 30.1137 71.8289 31.2081 73.9876 33.367C76.065 35.4444 77.1184 38.6259 77.1184 42.8231V57.7692H77.1186C77.1184 59.469 75.7603 60.8004 74.0261 60.8004Z" fill="#F5CF73"/>
</svg>
