<svg width="80" height="80" viewBox="0 0 80 80" fill="none" xmlns="http://www.w3.org/2000/svg">
<g clip-path="url(#clip0_2_32)">
<path d="M70.5743 26.0641C70.4943 25.9999 70.3986 25.9513 70.3022 25.9042C70.2059 25.872 70.1101 25.8399 69.998 25.8235C69.6945 25.7593 69.3739 25.7914 69.0861 25.9042C68.8783 25.9835 68.702 26.112 68.5577 26.2555C68.2699 26.544 68.0942 26.9596 68.0942 27.3917C68.0942 27.808 68.2699 28.2236 68.5577 28.5121C68.702 28.672 68.8783 28.7835 69.0861 28.8641C69.2782 28.9441 69.486 28.9913 69.6945 28.9913C69.7895 28.9913 69.9023 28.9756 69.998 28.9592C70.1101 28.9277 70.2059 28.8963 70.3022 28.8641C70.3986 28.8156 70.4943 28.7677 70.5743 28.7199C70.67 28.6556 70.75 28.5914 70.8307 28.5121C71.1178 28.2236 71.2941 27.808 71.2941 27.3917C71.2941 26.9596 71.1178 26.5597 70.8307 26.2555C70.75 26.1756 70.67 26.112 70.5743 26.0641Z" fill="#F5CF73"/>
<path d="M64.206 26.7683C64.1574 26.6719 64.1103 26.5912 64.0624 26.4962C63.9982 26.4155 63.9346 26.3362 63.8539 26.2556C63.4062 25.8078 62.7021 25.6643 62.1101 25.9042C61.918 25.9835 61.7423 26.112 61.598 26.2556C61.2945 26.5598 61.1182 26.9597 61.1182 27.3917C61.1182 27.6002 61.166 27.808 61.246 28.0001C61.3267 28.1915 61.4381 28.3679 61.598 28.5121C61.7423 28.6721 61.918 28.7835 62.1101 28.8642C62.3022 28.9441 62.51 28.9913 62.7342 28.9913C63.1498 28.9913 63.5661 28.8156 63.8539 28.5121C64.0139 28.3679 64.1267 28.1915 64.206 28.0001C64.2859 27.808 64.3345 27.6002 64.3345 27.3917C64.3345 27.2796 64.3181 27.1839 64.3024 27.0718C64.2702 26.9761 64.2381 26.864 64.206 26.7683Z" fill="#F5CF73"/>
<path d="M73.1311 18.2369H62.4596V1.60029C62.4596 0.716406 61.7432 0 60.8593 0H19.2018C18.3179 0 17.6015 0.716406 17.6015 1.60029V18.2369H6.92988C4.56943 18.2369 2.6499 20.1564 2.6499 22.5162V57.0739C2.6499 59.4344 4.56943 61.3539 6.92988 61.3539H17.6015V78.4C17.6015 79.2839 18.3179 80.0003 19.2018 80.0003H60.8593C61.7432 80.0003 62.4596 79.2839 62.4596 78.4V61.3539H73.1311C75.4916 61.3539 77.4111 59.4344 77.4111 57.0739V22.5162C77.4111 20.1564 75.4916 18.2369 73.1311 18.2369ZM20.8014 3.1999H59.2597V18.2369H20.8014V3.1999ZM20.8014 76.7997V46.1843H59.2597V76.7997H20.8014ZM74.2112 57.0739C74.2112 57.6693 73.7266 58.154 73.1311 58.154H62.4596V46.1843H67.4799C68.3631 46.1843 69.0795 45.4679 69.0795 44.5847C69.0795 43.7008 68.3631 42.9844 67.4799 42.9844H12.5812C11.6979 42.9844 10.9815 43.7008 10.9815 44.5847C10.9815 45.4679 11.6979 46.1843 12.5812 46.1843H17.6015V58.154H6.92988C6.33447 58.154 5.8498 57.6693 5.8498 57.0739V22.5162C5.8498 21.9208 6.33447 21.4368 6.92988 21.4368H73.1311C73.7266 21.4368 74.2112 21.9208 74.2112 22.5162V57.0739Z" fill="#F5CF73"/>
<path d="M25.989 54.9985H45.2554C46.1392 54.9985 46.8557 54.2821 46.8557 53.3982C46.8557 52.515 46.1392 51.7986 45.2554 51.7986H25.989C25.1051 51.7986 24.3887 52.515 24.3887 53.3982C24.3887 54.2821 25.1051 54.9985 25.989 54.9985Z" fill="#F5CF73"/>
<path d="M54.0717 59.8923H25.989C25.1051 59.8923 24.3887 60.6087 24.3887 61.4919C24.3887 62.3758 25.1051 63.0922 25.989 63.0922H54.0717C54.9556 63.0922 55.672 62.3758 55.672 61.4919C55.672 60.6087 54.9556 59.8923 54.0717 59.8923Z" fill="#F5CF73"/>
<path d="M54.0717 67.9861H25.989C25.1051 67.9861 24.3887 68.7025 24.3887 69.5857C24.3887 70.4696 25.1051 71.186 25.989 71.186H54.0717C54.9556 71.186 55.672 70.4696 55.672 69.5857C55.672 68.7025 54.9556 67.9861 54.0717 67.9861Z" fill="#F5CF73"/>
</g>
<defs>
<clipPath id="clip0_2_32">
<rect width="80" height="80" fill="white"/>
</clipPath>
</defs>
</svg>
