<svg width="29" height="28" viewBox="0 0 29 28" fill="none" xmlns="http://www.w3.org/2000/svg">
<g clip-path="url(#clip0_2_743)">
<path d="M14.2546 6.81104C10.2845 6.81104 7.07031 10.0287 7.07031 13.9954C7.07031 17.9655 10.288 21.1797 14.2546 21.1797C18.2248 21.1797 21.439 17.962 21.439 13.9954C21.439 10.0252 18.2213 6.81104 14.2546 6.81104ZM14.2546 18.6585C11.6775 18.6585 9.59148 16.5714 9.59148 13.9954C9.59148 11.4194 11.6786 9.3322 14.2546 9.3322C16.8306 9.3322 18.9178 11.4194 18.9178 13.9954C18.919 16.5714 16.8318 18.6585 14.2546 18.6585Z" fill="#999999"/>
<path d="M20.0229 0.0884394C17.4469 -0.0317273 11.0664 -0.0258939 8.4881 0.0884394C6.22243 0.194606 4.22393 0.741772 2.61277 2.35294C-0.0799016 5.04561 0.264265 8.67394 0.264265 13.9951C0.264265 19.4411 -0.0390682 22.9854 2.61277 25.6373C5.31593 28.3393 8.99677 27.9858 14.2549 27.9858C19.6496 27.9858 21.5116 27.9893 23.4191 27.2508C26.0126 26.2439 27.9703 23.9258 28.1616 19.7619C28.2829 17.1848 28.2759 10.8054 28.1616 8.22711C27.9306 3.31194 25.2928 0.331106 20.0229 0.0884394ZM24.1004 23.8558C22.3353 25.6209 19.8864 25.4634 14.2211 25.4634C8.38777 25.4634 6.0486 25.5498 4.34177 23.8383C2.37593 21.8818 2.73177 18.7399 2.73177 13.9764C2.73177 7.5306 2.07027 2.88844 8.53943 2.55711C10.0258 2.50461 10.4633 2.48711 14.2048 2.48711L14.2573 2.52211C20.4744 2.52211 25.3523 1.87111 25.6451 8.3391C25.7116 9.81494 25.7268 10.2583 25.7268 13.9939C25.7256 19.7596 25.8353 22.1128 24.1004 23.8558Z" fill="#999999"/>
<path d="M21.7238 8.20654C22.651 8.20654 23.4026 7.4549 23.4026 6.52771C23.4026 5.60052 22.651 4.84888 21.7238 4.84888C20.7966 4.84888 20.0449 5.60052 20.0449 6.52771C20.0449 7.4549 20.7966 8.20654 21.7238 8.20654Z" fill="#999999"/>
</g>
<defs>
<clipPath id="clip0_2_743">
<rect width="28" height="28" fill="white" transform="translate(0.25)"/>
</clipPath>
</defs>
</svg>
