<svg width="19" height="38" viewBox="0 0 19 38" fill="none" xmlns="http://www.w3.org/2000/svg">
<path d="M15.8801 37.6667C15.4817 37.6681 15.0881 37.5802 14.7282 37.4094C14.3682 37.2387 14.0511 36.9895 13.8001 36.6801L0.920111 20.6801C0.527893 20.2029 0.313477 19.6044 0.313477 18.9867C0.313477 18.3691 0.527893 17.7706 0.920111 17.2934L14.2534 1.29342C14.7061 0.74884 15.3565 0.406375 16.0616 0.341362C16.7668 0.27635 17.4689 0.494115 18.0134 0.946751C18.558 1.39939 18.9005 2.04982 18.9655 2.75495C19.0305 3.46009 18.8127 4.16217 18.3601 4.70675L6.44011 19.0001L17.9601 33.2934C18.2862 33.6848 18.4933 34.1615 18.557 34.6669C18.6207 35.1724 18.5382 35.6855 18.3194 36.1456C18.1006 36.6057 17.7546 36.9935 17.3223 37.263C16.89 37.5326 16.3895 37.6727 15.8801 37.6667Z" fill="white"/>
</svg>
