<svg width="84" height="32" viewBox="0 0 84 32" fill="none" xmlns="http://www.w3.org/2000/svg">
<g clip-path="url(#clip0_2_324)">
<path d="M83.0296 29.1351V28.3417H82.7294C82.5441 28.3417 82.4094 28.3826 82.3254 28.4644C82.2562 28.5317 82.2215 28.6229 82.2215 28.7382C82.2215 28.8536 82.2548 28.9438 82.3215 29.0088C82.4055 29.0929 82.5417 29.1351 82.7294 29.1351H83.0296ZM83.5375 30.5304H83.0296V29.4956L82.2882 30.5304H81.695L82.4514 29.546C82.2338 29.5197 82.0583 29.4365 81.9252 29.2972C81.784 29.1481 81.7137 28.9607 81.7137 28.7347C81.7137 28.5232 81.769 28.3453 81.8803 28.2011C82.0533 27.975 82.3414 27.862 82.744 27.862H83.5375V30.5304ZM81.3131 30.5304H80.8053V28.6554L79.582 30.5304H79.0741V27.862H79.582V29.7372L80.8053 27.862H81.3131V30.5304ZM78.57 30.5304H78.0621V29.4125H77.0611V30.5304H76.5532V27.862H77.0611V28.9331H78.0621V27.862H78.57V30.5304ZM75.241 29.3621L74.9294 28.5833L74.6182 29.3621H75.241ZM76.2753 30.5304H75.7152L75.4339 29.8418H74.4255L74.1436 30.5304H73.5838L74.7255 27.862H75.1336L76.2753 30.5304ZM73.3059 30.5304H72.798V28.3417H71.797V30.5304H71.2891V27.862H73.3059V30.5304ZM70.785 30.5304H70.2771V28.5329L69.5467 30.5304H69.1168L68.3864 28.5329V30.5304H67.8786V27.862H68.5683L69.3317 29.9029L70.0955 27.862H70.785V30.5304ZM67.0075 29.1982C67.0075 28.9487 66.9179 28.7359 66.7387 28.5593C66.5597 28.3831 66.3366 28.2949 66.0694 28.2949C65.8001 28.2949 65.5765 28.3826 65.3986 28.5575C65.2206 28.7329 65.1317 28.9464 65.1317 29.1982C65.1317 29.4521 65.2217 29.6682 65.4023 29.8459C65.5826 30.0234 65.8038 30.1121 66.0658 30.1121C66.3353 30.1121 66.5597 30.0226 66.7387 29.8441C66.9179 29.6649 67.0075 29.4498 67.0075 29.1982ZM67.5155 29.209C67.5155 29.5953 67.3765 29.9221 67.0983 30.1901C66.8203 30.4578 66.4776 30.5918 66.0694 30.5918C65.6618 30.5918 65.3188 30.4578 65.0409 30.1901C64.7627 29.9221 64.6238 29.5953 64.6238 29.209C64.6238 28.8201 64.7627 28.4907 65.0409 28.2202C65.3188 27.9504 65.6618 27.8152 66.0694 27.8152C66.4776 27.8152 66.8203 27.9504 67.0983 28.2202C67.3765 28.4907 67.5155 28.8201 67.5155 29.209ZM64.6721 30.5304H64.064L63.2115 29.3621V30.5304H62.7037V27.862H63.2115V29.0198L64.064 27.862H64.6721L63.6377 29.1747L64.6721 30.5304ZM60.6746 29.1412V28.3481H60.3744C60.1891 28.3481 60.0542 28.3887 59.9702 28.4705C59.9012 28.5381 59.8665 28.6291 59.8665 28.7446C59.8665 28.8599 59.8999 28.9502 59.9665 29.0152C60.0505 29.0993 60.1865 29.1412 60.3744 29.1412H60.6746ZM61.1825 30.5368H60.6746V29.502L59.9332 30.5368H59.34L60.0965 29.5524C59.8789 29.526 59.7033 29.4429 59.57 29.3036C59.429 29.1545 59.3584 28.9669 59.3584 28.741C59.3584 28.5293 59.4143 28.3516 59.5253 28.2074C59.6983 27.9814 59.9862 27.8684 60.3891 27.8684H61.1825V30.5368ZM58.1501 29.3685L57.8385 28.5897L57.5272 29.3685H58.1501ZM59.1844 30.5368H58.6243L58.3427 29.848H57.3346L57.0527 30.5368H56.4929L57.6346 27.8684H58.0425L59.1844 30.5368ZM56.215 30.5368H55.7071V29.4189H54.7061V30.5368H54.1983V27.8684H54.7061V28.9392H55.7071V27.8684H56.215V30.5368ZM53.6941 30.5368H53.1862V29.4189H52.1855V30.5368H51.6774V27.8684H52.1855V28.9392H53.1862V27.8684H53.6941V30.5368ZM51.2215 30.5368H49.7499V27.8684H51.2215V28.3481H50.2575V28.9646H51.1805V29.4442H50.2575V30.0571H51.2215V30.5368ZM48.8712 29.7219C48.8712 29.6378 48.8489 29.568 48.8042 29.5127C48.7326 29.4212 48.6103 29.3757 48.4374 29.3757H48.1074V30.0571H48.4374C48.5263 30.0571 48.6053 30.0428 48.6746 30.0139C48.8056 29.9587 48.8712 29.8612 48.8712 29.7219ZM48.7043 28.6222C48.7043 28.5089 48.6586 28.4309 48.567 28.3877C48.5103 28.3611 48.436 28.3481 48.3447 28.3481H48.1074V28.896H48.3447C48.456 28.896 48.5436 28.8728 48.608 28.8257C48.6722 28.7789 48.7043 28.7109 48.7043 28.6222ZM49.3791 29.7255C49.3791 29.9564 49.3074 30.1402 49.1638 30.2773C48.9809 30.4501 48.6883 30.5368 48.2854 30.5368H47.5996V27.8684H48.2594C48.561 27.8684 48.7919 27.9249 48.9528 28.0379C49.1255 28.1604 49.2121 28.3383 49.2121 28.5715C49.2121 28.7134 49.1714 28.8346 49.0898 28.9356C49.0428 28.9934 48.9838 29.0415 48.9119 29.0799C49.0602 29.1282 49.1751 29.21 49.2567 29.3253C49.3381 29.4406 49.3791 29.5741 49.3791 29.7255ZM47.3326 28.3481H46.8248V30.5368H46.3169V28.3481H45.8089V27.8684H47.3326V28.3481ZM45.7162 28.6329H45.138C45.0564 28.5319 44.9663 28.4549 44.8674 28.402C44.7438 28.3348 44.6042 28.3013 44.4486 28.3013C44.1816 28.3013 43.9599 28.3908 43.7832 28.5692C43.6063 28.7482 43.5181 28.9586 43.5181 29.2008C43.5181 29.4549 43.6076 29.6713 43.7869 29.8503C43.9659 30.0287 44.1877 30.1185 44.4522 30.1185C44.5805 30.1185 44.7018 30.0932 44.8154 30.0428C44.9293 29.9922 45.028 29.9142 45.1123 29.8083H45.7015C45.5852 30.0512 45.421 30.241 45.2083 30.378C44.9837 30.5248 44.7265 30.5982 44.4375 30.5982C43.995 30.5982 43.6378 30.4419 43.3659 30.13C43.1289 29.8564 43.01 29.5462 43.01 29.2008C43.01 28.8623 43.1276 28.5585 43.3622 28.2898C43.6367 27.9778 43.9974 27.8213 44.4449 27.8213C44.7314 27.8213 44.986 27.8924 45.2083 28.0343C45.4309 28.1763 45.6002 28.3757 45.7162 28.6329ZM42.0609 30.0571L41.3828 28.5536L40.7043 30.0571H42.0609ZM42.8767 31.0379H42.3688V30.5368H40.3891V31.0379H39.8813V30.0571H40.1445L41.1602 27.8684H41.6051L42.6208 30.0571H42.8767V31.0379ZM39.2401 29.2044C39.2401 28.9551 39.1503 28.7423 38.9713 28.5657C38.7918 28.3895 38.569 28.3013 38.3021 28.3013C38.0325 28.3013 37.8089 28.3887 37.631 28.5639C37.453 28.7393 37.3643 28.9525 37.3643 29.2044C37.3643 29.4585 37.4544 29.6743 37.6347 29.8523C37.8152 30.0295 38.0365 30.1185 38.2981 30.1185C38.5677 30.1185 38.7918 30.0287 38.9713 29.8503C39.1503 29.6713 39.2401 29.4562 39.2401 29.2044ZM39.7479 29.2151C39.7479 29.6017 39.6088 29.9285 39.3309 30.1965C39.0527 30.4639 38.7099 30.5982 38.3021 30.5982C37.8942 30.5982 37.5515 30.4639 37.2733 30.1965C36.9953 29.9285 36.8562 29.6017 36.8562 29.2151C36.8562 28.8265 36.9953 28.4969 37.2733 28.2266C37.5515 27.9569 37.8942 27.8213 38.3021 27.8213C38.7099 27.8213 39.0527 27.9569 39.3309 28.2266C39.6088 28.4969 39.7479 28.8265 39.7479 29.2151ZM36.1184 29.7219C36.1184 29.6378 36.0964 29.568 36.0518 29.5127C35.9801 29.4212 35.8578 29.3757 35.6849 29.3757H35.3549V30.0571H35.6849C35.7735 30.0571 35.8531 30.0428 35.9221 30.0139C36.0531 29.9587 36.1184 29.8612 36.1184 29.7219ZM35.9518 28.6222C35.9518 28.5089 35.9059 28.4309 35.8145 28.3877C35.7576 28.3611 35.6835 28.3481 35.5922 28.3481H35.3549V28.896H35.5922C35.7035 28.896 35.7912 28.8728 35.8552 28.8257C35.9195 28.7789 35.9518 28.7109 35.9518 28.6222ZM36.6266 29.7255C36.6266 29.9564 36.5549 30.1402 36.4113 30.2773C36.2284 30.4501 35.9358 30.5368 35.5329 30.5368H34.8471V27.8684H35.5069C35.8085 27.8684 36.0394 27.9249 36.2001 28.0379C36.373 28.1604 36.4596 28.3383 36.4596 28.5715C36.4596 28.7134 36.4187 28.8346 36.3371 28.9356C36.2903 28.9934 36.231 29.0415 36.1594 29.0799C36.3077 29.1282 36.4226 29.21 36.504 29.3253C36.5856 29.4406 36.6266 29.5741 36.6266 29.7255ZM34.4839 29.7904C34.4839 30.0331 34.3965 30.2248 34.2222 30.3655C34.0482 30.5061 33.8201 30.5764 33.5385 30.5764C33.2713 30.5764 33.0532 30.4995 32.8842 30.3455C32.7146 30.1916 32.6301 29.9814 32.6301 29.7147H33.138C33.138 29.8083 33.164 29.8888 33.2159 29.9564C33.2899 30.05 33.4036 30.0967 33.5569 30.0967C33.7002 30.0967 33.8059 30.0638 33.8739 29.9976C33.9416 29.9316 33.9758 29.8503 33.9758 29.7544C33.9758 29.6534 33.9474 29.5715 33.8907 29.5089C33.8238 29.4345 33.7248 29.3974 33.5941 29.3974H33.3346V28.9178H33.5569C33.6582 28.9178 33.7385 28.8914 33.7978 28.8385C33.8571 28.7855 33.8867 28.7122 33.8867 28.6183C33.8867 28.5176 33.8584 28.4394 33.8015 28.3841C33.7448 28.3289 33.6658 28.3013 33.5642 28.3013C33.4655 28.3013 33.3844 28.324 33.3214 28.3696C33.2585 28.4153 33.2269 28.479 33.2269 28.5608H32.7191C32.7191 28.3491 32.7894 28.1763 32.9304 28.0415C33.0837 27.8947 33.2962 27.8213 33.5679 27.8213C33.8101 27.8213 34.0086 27.8883 34.1629 28.0218C34.3175 28.155 34.3946 28.3324 34.3946 28.5536C34.3946 28.6833 34.3589 28.7994 34.2873 28.9014C34.2156 29.0036 34.1204 29.0811 34.0017 29.1341C34.1377 29.1678 34.2487 29.2376 34.3353 29.3432C34.4343 29.4634 34.4839 29.6125 34.4839 29.7904ZM32.2669 30.5368H31.7588V28.6618L30.5354 30.5368H30.0276V27.8684H30.5354V29.7434L31.7588 27.8684H32.2669V30.5368ZM29.1565 29.2044C29.1565 28.9551 29.067 28.7423 28.8878 28.5657C28.7085 28.3895 28.4857 28.3013 28.2185 28.3013C27.9492 28.3013 27.7256 28.3887 27.5474 28.5639C27.3697 28.7393 27.2807 28.9525 27.2807 29.2044C27.2807 29.4585 27.3708 29.6743 27.5513 29.8523C27.7317 30.0295 27.9529 30.1185 28.2148 30.1185C28.4844 30.1185 28.7085 30.0287 28.8878 29.8503C29.067 29.6713 29.1565 29.4562 29.1565 29.2044ZM29.6646 29.2151C29.6646 29.6017 29.5255 29.9285 29.2473 30.1965C28.9691 30.4639 28.6266 30.5982 28.2185 30.5982C27.8109 30.5982 27.4679 30.4639 27.1899 30.1965C26.9117 29.9285 26.7729 29.6017 26.7729 29.2151C26.7729 28.8265 26.9117 28.4969 27.1899 28.2266C27.4679 27.9569 27.8109 27.8213 28.2185 27.8213C28.6266 27.8213 28.9691 27.9569 29.2473 28.2266C29.5255 28.4969 29.6646 28.8265 29.6646 29.2151ZM26.0795 28.6979C26.0795 28.556 26.0238 28.4572 25.9128 28.402C25.8412 28.366 25.7522 28.3481 25.6459 28.3481H25.3457V29.0476H25.6459C25.7965 29.0476 25.9065 29.0175 25.9758 28.9574C26.0451 28.8973 26.0795 28.8108 26.0795 28.6979ZM26.5873 28.7014C26.5873 28.9178 26.5243 29.0967 26.3984 29.2386C26.228 29.4309 25.9635 29.527 25.6052 29.527H25.3457V30.5368H24.8378V27.8684H25.6052C25.9858 27.8684 26.2587 27.9755 26.4244 28.1893C26.533 28.3312 26.5873 28.5017 26.5873 28.7014ZM24.3336 30.5368H23.8258V28.3481H22.8248V30.5368H22.3169V27.8684H24.3336V30.5368ZM21.8014 29.5991H20.771V29.1737H21.8014V29.5991ZM19.8889 29.2044C19.8889 28.9551 19.7992 28.7423 19.6199 28.5657C19.4409 28.3895 19.2178 28.3013 18.9509 28.3013C18.6813 28.3013 18.4578 28.3887 18.2798 28.5639C18.1018 28.7393 18.0131 28.9525 18.0131 29.2044C18.0131 29.4585 18.1032 29.6743 18.2838 29.8523C18.464 30.0295 18.6853 30.1185 18.9472 30.1185C19.2165 30.1185 19.4409 30.0287 19.6199 29.8503C19.7992 29.6713 19.8889 29.4562 19.8889 29.2044ZM20.3968 29.2151C20.3968 29.6017 20.2577 29.9285 19.9795 30.1965C19.7015 30.4639 19.3588 30.5982 18.9509 30.5982C18.543 30.5982 18.2003 30.4639 17.9221 30.1965C17.6441 29.9285 17.505 29.6017 17.505 29.2151C17.505 28.8265 17.6441 28.4969 17.9221 28.2266C18.2003 27.9569 18.543 27.8213 18.9509 27.8213C19.3588 27.8213 19.7015 27.9569 19.9795 28.2266C20.2577 28.4969 20.3968 28.8265 20.3968 29.2151ZM17.1418 30.5368H16.6339V29.4189H15.6332V30.5368H15.1251V27.8684H15.6332V28.9392H16.6339V27.8684H17.1418V30.5368ZM14.6209 30.5368H14.113V28.5391L13.3829 30.5368H12.9527L12.2226 28.5391V30.5368H11.7147V27.8684H12.4042L13.1679 29.9093L13.9314 27.8684H14.6209V30.5368ZM10.4022 29.3685L10.0909 28.5897L9.77934 29.3685H10.4022ZM11.4365 30.5368H10.8767L10.5951 29.848H9.5867L9.30485 30.5368H8.74504L9.88695 27.8684H10.2948L11.4365 30.5368ZM8.69332 30.5368H8.1335L7.38469 28.5536L6.63564 30.5368H6.07583L7.16214 27.8684H7.60701L8.69332 30.5368ZM5.9722 30.5368H5.3643L4.51162 29.3685V30.5368H4.00377V27.8684H4.51162V29.0259L5.3643 27.8684H5.9722L4.93808 29.1809L5.9722 30.5368ZM3.54759 30.5368H2.07599V27.8684H3.54759V28.3481H2.58384V28.9646H3.50694V29.4442H2.58384V30.0571H3.54759V30.5368ZM1.2419 28.6979C1.2419 28.556 1.1863 28.4572 1.075 28.402C1.00336 28.366 0.914391 28.3481 0.80806 28.3481H0.507853V29.0476H0.80806C0.959015 29.0476 1.06894 29.0175 1.13798 28.9574C1.20726 28.8973 1.2419 28.8108 1.2419 28.6979ZM1.74976 28.7014C1.74976 28.9178 1.68677 29.0967 1.56056 29.2386C1.39021 29.4309 1.12563 29.527 0.767411 29.527H0.507853V30.5368H0V27.8684H0.767411C1.14797 27.8684 1.42116 27.9755 1.58654 28.1893C1.69543 28.3312 1.74976 28.5017 1.74976 28.7014Z" fill="#B2B3B3"/>
<path fill-rule="evenodd" clip-rule="evenodd" d="M11.0057 10.5141C9.7455 13.4269 8.47681 16.337 7.18858 19.2381C6.70846 20.3193 6.25697 21.4095 5.81276 22.5051C5.4791 23.328 4.95075 24.7902 4.04213 25.1415C3.74141 25.2577 3.42222 25.3163 3.09902 25.3209C2.7248 25.3261 2.35073 25.259 1.9996 25.1339C0.863037 24.7289 -0.115853 23.6625 0.045276 22.423C0.151654 21.6046 0.510351 20.6617 0.803317 19.8861C0.921621 19.5728 1.04286 19.2607 1.16305 18.9479C2.09727 16.5165 3.20748 14.1424 4.19352 11.7284C5.10171 9.50493 6.16019 7.31624 6.99806 5.07103C7.37214 4.06878 7.74096 3.00083 8.23173 2.04841C8.60477 1.32452 9.1077 0.572184 9.88528 0.215955C10.2203 0.0623894 10.5783 -0.00459658 10.9476 0.000244114C11.0989 0.0022726 11.2489 0.0212205 11.3956 0.0573643C12.4347 0.313322 13.1297 1.39197 13.5946 2.25647C14.2803 3.53179 14.8094 4.96293 15.3551 6.30301C16.6378 9.45306 18.1137 12.5245 19.3702 15.6875C19.9252 17.0847 20.5686 18.4474 21.118 19.8439C21.507 20.8325 21.9323 22.0481 21.8405 23.1195C21.7603 24.0564 20.8871 24.8262 20.0424 25.1651C18.981 25.5912 17.8161 25.4464 17.0626 24.5442C16.5171 23.8912 15.981 22.5619 15.6511 21.7752C15.0436 20.3269 14.4815 18.8584 13.8959 17.4014C12.9673 15.0916 11.9926 12.8005 11.0057 10.5141ZM56.0141 11.9114C56.9719 12.2065 57.949 12.6642 58.6725 13.1539C61.5591 15.1078 61.7844 19.6437 59.9573 22.3468C58.022 25.2102 52.349 25.2521 49.1988 25.248C46.9368 25.2451 44.6668 25.2402 42.4056 25.184L42.0398 25.1749V0.29147L42.4168 0.293037C44.6887 0.302304 46.9817 0.238775 49.2537 0.192397C50.3048 0.170913 51.3628 0.132142 52.4124 0.20678C53.4037 0.277409 54.3473 0.45361 55.2992 0.732711C56.7441 1.15634 57.8818 2.05422 58.6426 3.31732C59.2056 4.25194 59.5682 5.4197 59.5912 6.5066C59.6322 8.44408 58.8314 10.071 57.2286 11.2137C56.8849 11.4587 56.4584 11.7056 56.0141 11.9114V11.9114ZM72.8449 10.637C71.5847 13.5499 70.316 16.4599 69.0278 19.361C68.5477 20.4423 68.0961 21.5324 67.652 22.628C67.3182 23.4511 66.7901 24.9132 65.8813 25.2645C64.2531 25.894 62.1158 24.7793 61.8862 23.0722C61.8627 22.8974 61.8618 22.7208 61.8845 22.5459C61.9909 21.7276 62.3495 20.7846 62.6425 20.009C62.7608 19.6957 62.8821 19.3835 63.0022 19.0709C63.9364 16.6394 65.0467 14.2653 66.0327 11.8513C66.9409 9.62788 67.9994 7.4392 68.8373 5.19399C69.2113 4.19173 69.5801 3.12378 70.0709 2.17137C70.4439 1.44747 70.9469 0.695138 71.7244 0.338908C72.0595 0.185343 72.4175 0.118357 72.7868 0.123198C72.9381 0.125226 73.0882 0.144174 73.2348 0.180318C74.2739 0.436276 74.9689 1.51492 75.4338 2.37942C76.1195 3.65474 76.6486 5.08588 77.1943 6.42597C78.477 9.57602 79.9529 12.6475 81.2094 15.8104C81.7644 17.2077 82.4077 18.5704 82.9571 19.9668C83.3462 20.9555 83.7714 22.171 83.6797 23.2425C83.5994 24.1802 82.7254 24.9496 81.8797 25.2881C80.8191 25.7126 79.6545 25.5685 78.9018 24.6672C78.3563 24.0142 77.8202 22.6848 77.4902 21.8982C76.8829 20.4499 76.3207 18.9813 75.735 17.5244C74.8065 15.2145 73.8318 12.9235 72.8449 10.637ZM29.7952 19.751C31.7313 19.7206 33.6852 19.7512 35.6203 19.7663C37.9947 19.785 40.6267 19.8986 40.4704 22.8928C40.4179 23.8981 39.8298 24.6529 38.8558 24.9867C38.2242 25.2031 37.3518 25.224 36.6852 25.2339C35.5948 25.2502 34.4994 25.2203 33.4081 25.2189C32.4322 25.2177 31.4563 25.2189 30.4805 25.2225C28.2434 25.2307 25.9706 25.2249 23.7362 25.3145L23.3453 25.3301V24.9491C23.3453 20.2458 23.3501 15.5425 23.3639 10.8392C23.3701 8.71705 23.3611 6.58894 23.4155 4.46765C23.4385 3.57217 23.2799 2.44258 23.8225 1.66844C24.504 0.69629 25.497 0.258553 26.6801 0.239144C27.4852 0.225821 28.4594 0.750736 28.9765 1.33757C29.768 2.23554 29.6704 3.84058 29.6637 4.9561C29.6542 6.55939 29.6663 8.16286 29.6591 9.76623C29.6444 13.0881 29.6922 16.4285 29.7952 19.751V19.751ZM47.5073 4.12572V9.44781C48.8241 9.60999 50.5764 9.57058 51.7576 9.12878C52.7835 8.74512 53.4123 7.86748 53.4439 6.79658C53.4826 5.48531 52.6484 4.66492 51.4003 4.32442C50.2783 4.01834 48.7249 3.99437 47.5073 4.12572ZM47.5389 14.2719V21.5705C49.1992 21.8016 51.453 21.7508 52.9501 21.1528C54.3153 20.6075 55.0782 19.3575 55.1174 17.9388C55.1654 16.2052 54.1738 15.0162 52.4985 14.5281C51.0711 14.1122 49.0769 14.0867 47.5389 14.2719Z" fill="white"/>
<path fill-rule="evenodd" clip-rule="evenodd" d="M11.0057 9.57179C11.0057 9.57179 8.76865 14.7585 6.84395 19.0929C6.3096 20.2963 5.88891 21.3216 5.46354 22.3707C5.02624 23.4491 4.5818 24.5393 3.90364 24.8016C2.29429 25.4237 0.21063 24.0615 0.417614 22.4689C0.533362 21.5788 1.06852 20.2369 1.51452 19.0762C2.37662 16.8326 3.47405 14.4788 4.54219 11.8636C5.49837 9.52287 6.61421 7.16988 7.35076 5.19603C8.40423 2.3733 9.09493 0.341688 10.9425 0.365937C12.6836 0.388804 13.6739 3.16644 15.0061 6.43787C16.1965 9.36106 17.743 12.6046 19.02 15.8195C20.2678 18.9606 21.6165 21.336 21.4664 23.0892C21.3439 24.5198 18.6944 25.9189 17.3537 24.3135C16.628 23.4446 15.5016 20.3932 14.2453 17.2681C13.0007 14.1718 11.6255 11.0039 11.0057 9.57179ZM42.4151 0.658823V24.8184C44.089 24.8601 46.6486 24.879 49.1992 24.8824C53.5143 24.8879 58.0099 24.563 59.6437 22.1457C61.365 19.5991 61.1659 15.2872 58.4582 13.4543C56.7049 12.2676 54.7039 11.9855 54.7039 11.9855C54.7039 11.9855 59.3102 10.9711 59.2158 6.51422C59.1804 4.84229 58.2008 1.96549 55.1909 1.08301C54.1519 0.778365 53.2621 0.634112 52.3849 0.57169C51.3939 0.501108 50.4185 0.534486 49.2615 0.55809C46.3434 0.617746 43.5912 0.663663 42.4151 0.658869V0.658823ZM47.1318 3.8032V9.76491C47.1318 9.76491 49.9288 10.2046 51.892 9.47027C53.0267 9.0459 53.7819 8.05965 53.819 6.80715C53.8627 5.33042 52.9257 4.3608 51.5014 3.97235C49.6273 3.46099 47.1318 3.8032 47.1318 3.8032ZM47.1633 13.9528V21.8831C47.1633 21.8831 50.6471 22.468 53.0924 21.4912C54.5058 20.9267 55.4465 19.6148 55.4926 17.9487C55.547 15.9844 54.3799 14.6946 52.6059 14.1778C50.2717 13.4977 47.1633 13.9528 47.1633 13.9528ZM72.8448 9.69474C72.8448 9.69474 70.6078 14.8814 68.6831 19.2159C68.1488 20.4192 67.7281 21.4445 67.3027 22.4936C66.8654 23.5721 66.421 24.6623 65.7427 24.9245C64.0583 25.5756 62.0594 24.1097 62.2568 22.5919C62.3725 21.7017 62.9077 20.3599 63.3536 19.1991C64.2157 16.9555 65.3132 14.6018 66.3813 11.9866C67.3375 9.64583 68.4534 7.29283 69.1899 5.31898C70.2434 2.4963 70.934 0.464642 72.7816 0.488891C74.5228 0.511758 75.5131 3.28944 76.8452 6.56083C78.0356 9.48406 79.5822 12.7276 80.8591 15.9424C82.1069 19.0835 83.4556 21.459 83.3055 23.2121C83.1829 24.6443 80.5313 26.0392 79.1929 24.4364C78.4671 23.5675 77.3407 20.5162 76.0844 17.391C74.8399 14.2948 73.4647 11.1269 72.8448 9.69474ZM29.4312 20.1233C29.4312 20.1233 29.261 14.8322 29.2837 9.76472C29.2913 8.05056 29.2796 6.40127 29.2882 4.95404C29.2967 3.53124 29.3315 2.30166 28.6916 1.57583C28.2413 1.06475 27.3689 0.593542 26.6863 0.604791C25.9821 0.616317 24.8963 0.785096 24.1324 1.87471C23.681 2.51876 23.8189 3.37754 23.7907 4.47679C23.7453 6.24729 23.7459 8.54441 23.7392 10.8403C23.7195 17.5037 23.7206 24.9491 23.7206 24.9491C25.5484 24.8759 29.9533 24.8489 33.4085 24.8533C35.9643 24.8565 37.8007 24.9606 38.7311 24.6417C39.6189 24.3375 40.0537 23.6708 40.0953 22.8742C40.223 20.4294 38.4074 20.154 35.6171 20.1321C33.6133 20.1165 30.74 20.0973 29.4312 20.1233V20.1233Z" fill="white"/>
<path fill-rule="evenodd" clip-rule="evenodd" d="M10.8444 17.4111C12.8308 17.4111 14.4412 18.98 14.4412 20.9153C14.4412 22.8505 12.8308 24.4194 10.8444 24.4194C8.85795 24.4194 7.24756 22.8505 7.24756 20.9153C7.24756 18.98 8.85795 17.4111 10.8444 17.4111Z" fill="#F7AA47" stroke="white" stroke-width="0.0999998" stroke-miterlimit="22.9256"/>
<path fill-rule="evenodd" clip-rule="evenodd" d="M72.8102 17.4053C74.7963 17.4053 76.4067 18.9742 76.4067 20.9094C76.4067 22.8447 74.7963 24.4135 72.8102 24.4135C70.8238 24.4135 69.2134 22.8447 69.2134 20.9094C69.2134 18.9742 70.8238 17.4053 72.8102 17.4053Z" fill="#F7AA47" stroke="white" stroke-width="0.0999998" stroke-miterlimit="22.9256"/>
</g>
<defs>
<clipPath id="clip0_2_324">
<rect width="83.6923" height="32" fill="white"/>
</clipPath>
</defs>
</svg>
