<svg width="17" height="16" viewBox="0 0 17 16" fill="none" xmlns="http://www.w3.org/2000/svg">
<g clip-path="url(#clip0_2_340)">
<path d="M8.5 0C4.08172 0 0.5 3.58172 0.5 8C0.5 12.4183 4.08172 16 8.5 16C12.9183 16 16.5 12.4183 16.5 8C16.5 3.58172 12.9183 0 8.5 0ZM5.625 3.17773C5.78983 3.16801 5.93881 3.26653 6.05176 3.4414L7.14551 5.51561C7.26067 5.7614 7.19523 6.02457 7.02344 6.20019L6.52247 6.70116C6.49155 6.74353 6.4712 6.79125 6.47071 6.84373C6.66283 7.5874 7.2456 8.27337 7.75979 8.74511C8.27395 9.21684 8.82657 9.85552 9.54395 10.0068C9.63261 10.0316 9.74124 10.0404 9.80469 9.98145L10.3867 9.38868C10.5876 9.2364 10.8783 9.1626 11.0928 9.28712H11.1025L13.0761 10.4522C13.3659 10.6337 13.3959 10.9847 13.1885 11.1983L11.8291 12.5469C11.6284 12.7527 11.3617 12.822 11.1026 12.8223C9.95659 12.7879 8.87379 12.2255 7.9844 11.6475C6.52453 10.5854 5.18543 9.26819 4.34473 7.67676C4.02231 7.00943 3.64355 6.15796 3.67969 5.41311C3.68292 5.13289 3.75873 4.85837 3.95607 4.67776L5.31544 3.31839C5.42133 3.22828 5.52609 3.18357 5.625 3.17773Z" fill="#F5CF73"/>
</g>
<defs>
<clipPath id="clip0_2_340">
<rect width="16" height="16" fill="white" transform="translate(0.5)"/>
</clipPath>
</defs>
</svg>
